HIERARCHY
ROOT joint_Root
{
	OFFSET 0.0 0.0 0.0
	CHANNELS 6 Xposition Yposition Zposition Zrotation Xrotation Yrotation 
	JOINT Hips
	{
		OFFSET 4.5925 91.4895 -427.239
		CHANNELS 6 Xposition Yposition Zposition Zrotation Xrotation Yrotation 
		JOINT Spine
		{
			OFFSET 15.7357 0.0 0.0
			CHANNELS 6 Xposition Yposition Zposition Zrotation Xrotation Yrotation 
			JOINT Chest
			{
				OFFSET 8.98455 -0.406207 0.0
				CHANNELS 6 Xposition Yposition Zposition Zrotation Xrotation Yrotation 
				JOINT Neck
				{
					OFFSET 16.3773 0.0 0.0
					CHANNELS 6 Xposition Yposition Zposition Zrotation Xrotation Yrotation 
					JOINT Head
					{
						OFFSET 6.45672 0.0 0.0
						CHANNELS 6 Xposition Yposition Zposition Zrotation Xrotation Yrotation 
						End Site
						{
							OFFSET 0.0 0.0 0.0
						}
					}
				}
				JOINT Shoulder_L
				{
					OFFSET 12.9942 -0.242716 4.98039
					CHANNELS 6 Xposition Yposition Zposition Zrotation Xrotation Yrotation 
					JOINT UpperArm_L
					{
						OFFSET 5.34809 0.0 0.0
						CHANNELS 6 Xposition Yposition Zposition Zrotation Xrotation Yrotation 
						JOINT LowerArm_L
						{
							OFFSET 24.3286 1.87007e-05 0.0
							CHANNELS 6 Xposition Yposition Zposition Zrotation Xrotation Yrotation 
							JOINT Hand_L
							{
								OFFSET 22.2916 0.0 0.0
								CHANNELS 6 Xposition Yposition Zposition Zrotation Xrotation Yrotation 
								End Site
								{
									OFFSET 0.0 0.0 0.0
								}
							}
						}
					}
				}
				JOINT Shoulder_R
				{
					OFFSET 12.9945 -0.242716 -4.98039
					CHANNELS 6 Xposition Yposition Zposition Zrotation Xrotation Yrotation 
					JOINT UpperArm_R
					{
						OFFSET -5.34813 0.0 0.0
						CHANNELS 6 Xposition Yposition Zposition Zrotation Xrotation Yrotation 
						JOINT LowerArm_R
						{
							OFFSET -24.3289 0.000322201 0.0
							CHANNELS 6 Xposition Yposition Zposition Zrotation Xrotation Yrotation 
							JOINT Hand_R
							{
								OFFSET -22.2915 -0.000108084 0.0
								CHANNELS 6 Xposition Yposition Zposition Zrotation Xrotation Yrotation 
								End Site
								{
									OFFSET 0.0 0.0 0.0
								}
							}
						}
					}
				}
			}
		}
		JOINT UpperLeg_L
		{
			OFFSET -2.19248 -6.46944 0.0
			CHANNELS 6 Xposition Yposition Zposition Zrotation Xrotation Yrotation 
			JOINT LowerLeg_L
			{
				OFFSET 39.0811 0.0 -1.23785e-05
				CHANNELS 6 Xposition Yposition Zposition Zrotation Xrotation Yrotation 
				JOINT Foot_L
				{
					OFFSET 40.9854 0.0 -1.26872e-05
					CHANNELS 6 Xposition Yposition Zposition Zrotation Xrotation Yrotation 
					JOINT Toes_L
					{
						OFFSET 11.7543 0.0 0.0
						CHANNELS 6 Xposition Yposition Zposition Zrotation Xrotation Yrotation 
						End Site
						{
							OFFSET 0.0 0.0 0.0
						}
					}
				}
			}
		}
		JOINT UpperLeg_R
		{
			OFFSET -2.19251 6.46944 0.0
			CHANNELS 6 Xposition Yposition Zposition Zrotation Xrotation Yrotation 
			JOINT LowerLeg_R
			{
				OFFSET -39.0811 -0.00228153 -0.0401928
				CHANNELS 6 Xposition Yposition Zposition Zrotation Xrotation Yrotation 
				JOINT Foot_R
				{
					OFFSET -40.9854 0.0 0.0
					CHANNELS 6 Xposition Yposition Zposition Zrotation Xrotation Yrotation 
					JOINT Toes_R
					{
						OFFSET -11.7543 0.0 0.0
						CHANNELS 6 Xposition Yposition Zposition Zrotation Xrotation Yrotation 
						End Site
						{
							OFFSET 0.0 0.0 0.0
						}
					}
				}
			}
		}
	}
}
MOTION
Frames:	6
Frame Time:	0.0333333
0.000000 0.000000 0.000000 0.000000 0.000000 -0.000000 127.024000 88.211800 153.372000 125.087000 -73.443100 28.041300 15.735700 0.000005 -0.000001 127.294000 83.384600 -128.543000 8.984550 -0.406207 -0.000000 2.874300 8.062440 -2.702140 16.377300 -0.000001 -0.000001 -0.879644 -8.606930 3.300310 6.456720 -0.000001 -0.000000 -3.837540 -15.963000 4.975780 12.994200 -0.242716 4.980390 -85.014800 -12.005700 -67.249600 5.348090 -0.000007 -0.000001 -86.219100 35.665300 42.610100 24.328600 0.000019 0.000005 -9.755590 -2.943250 -73.371900 22.291600 -0.000001 0.000005 -2.292570 5.535930 -8.057330 12.994500 -0.242716 -4.980390 90.396400 -2.281870 -80.141500 -5.348130 -0.000001 -0.000004 -46.770000 35.294000 -62.481000 -24.328900 0.000322 -0.000009 -9.620970 5.790540 -120.761000 -22.291500 -0.000108 -0.000004 21.229400 5.617430 -12.444600 -2.192480 -6.469440 -0.000000 -177.678000 -5.110640 -36.399800 39.081100 -0.000007 -0.000012 0.005068 -0.006453 38.135300 40.985400 -0.000006 -0.000013 -1.889410 3.705340 -65.572600 11.754300 -0.000000 0.000003 -0.007106 -0.080584 -19.857400 -2.192510 6.469440 -0.000001 172.237000 11.022100 -172.944000 -39.081100 -0.002282 -0.040193 0.007398 -0.009168 24.009900 -40.985400 0.000008 0.000006 21.671000 14.787100 -78.048900 -11.754300 -0.000006 -0.000006 -0.052955 -0.308145 -29.274900
0.000000 0.000000 0.000000 0.000000 0.000000 -0.000000 124.034000 86.446300 156.396000 122.910000 -75.008300 26.729500 15.735700 0.000005 -0.000001 121.974000 83.301400 -122.706000 8.984550 -0.406207 -0.000000 3.668340 7.111410 -1.690740 16.377300 -0.000001 -0.000001 -1.747620 -8.892280 2.918610 6.456720 -0.000001 -0.000000 -5.030070 -15.281700 5.017700 12.994200 -0.242716 4.980390 -86.303800 -9.535750 -68.698100 5.348090 -0.000007 -0.000001 -82.125000 34.053900 37.390700 24.328600 0.000019 0.000005 -8.306920 -2.318950 -74.512000 22.291600 -0.000001 0.000005 -1.102230 5.544780 -8.460030 12.994500 -0.242716 -4.980390 90.213900 -1.255790 -80.334600 -5.348130 -0.000001 -0.000004 -47.857800 36.723600 -57.226500 -24.328900 0.000322 -0.000009 -9.653810 5.587830 -119.789000 -22.291500 -0.000108 -0.000004 21.085300 5.609610 -11.933900 -2.192480 -6.469440 -0.000000 -176.742000 -5.934160 -35.812400 39.081100 -0.000007 -0.000012 -0.032113 0.048714 33.394400 40.985400 -0.000006 -0.000013 -4.155520 6.042920 -66.937400 11.754300 -0.000000 0.000003 -0.007204 -0.081411 -19.891200 -2.192510 6.469440 -0.000001 171.605000 8.093660 -171.224000 -39.081100 -0.002282 -0.040193 0.011385 -0.015705 27.218700 -40.985400 0.000008 0.000006 20.943200 14.378600 -80.452100 -11.754300 -0.000006 -0.000006 -0.068093 -0.357222 -31.357100
0.000000 0.000000 0.000000 0.000000 0.000000 -0.000000 120.432000 84.913700 159.595000 123.038000 -76.069600 26.555200 15.735700 0.000005 -0.000001 117.441000 83.750400 -118.125000 8.984550 -0.406207 -0.000000 3.376350 5.779630 -1.537590 16.377300 -0.000001 -0.000001 -1.900430 -9.132620 3.359000 6.456720 -0.000001 -0.000000 -5.369040 -14.708600 4.976990 12.994200 -0.242716 4.980390 -88.241100 -4.811570 -69.892700 5.348090 -0.000007 -0.000001 -75.051500 32.021200 30.039200 24.328600 0.000019 0.000005 -6.307880 -1.600000 -75.824600 22.291600 -0.000001 0.000005 0.017468 5.553640 -8.878930 12.994500 -0.242716 -4.980390 89.685000 2.060180 -81.300600 -5.348130 -0.000001 -0.000004 -49.644200 38.863600 -46.328600 -24.328900 0.000322 -0.000009 -10.530400 5.212860 -116.049000 -22.291500 -0.000108 -0.000004 21.589700 5.618470 -12.512600 -2.192480 -6.469440 -0.000000 -177.784000 -9.572090 -39.396800 39.081100 -0.000007 -0.000012 -0.247391 0.305750 38.977800 40.985400 -0.000006 -0.000013 -9.523560 5.209620 -60.524200 11.754300 -0.000000 0.000003 -0.006840 -0.078293 -19.763900 -2.192510 6.469440 -0.000001 170.736000 5.547980 -170.768000 -39.081100 -0.002282 -0.040193 0.026121 -0.038026 30.969800 -40.985400 0.000008 0.000006 20.845900 13.307200 -80.248000 -11.754300 -0.000006 -0.000006 -0.109237 -0.466918 -36.108200
0.000000 0.000000 0.000000 0.000000 0.000000 -0.000000 115.821000 83.746500 162.828000 125.108000 -76.754600 28.732900 15.735700 0.000005 -0.000001 112.432000 84.304200 -113.461000 8.984550 -0.406207 -0.000000 2.811250 4.387290 -2.164070 16.377300 -0.000001 -0.000001 -1.769550 -9.272160 4.006790 6.456720 -0.000001 -0.000000 -4.029530 -14.404500 5.675270 12.994200 -0.242716 4.980390 -90.069900 0.184683 -69.341900 5.348090 -0.000007 -0.000001 -66.855300 31.068900 18.626800 24.328600 0.000019 0.000005 -5.178060 -1.272810 -76.227300 22.291600 -0.000001 0.000005 0.744645 5.560800 -9.225070 12.994500 -0.242716 -4.980390 88.899100 7.027590 -81.076200 -5.348130 -0.000001 -0.000004 -51.957400 40.544600 -31.516800 -24.328900 0.000322 -0.000009 -13.546400 4.203360 -106.927000 -22.291500 -0.000108 -0.000004 21.567100 5.633410 -13.598900 -2.192480 -6.469440 -0.000000 -178.365000 -9.823660 -40.302000 39.081100 -0.000007 -0.000012 -0.205973 0.193200 46.833300 40.985400 -0.000006 -0.000013 -8.347170 5.142280 -60.956000 11.754300 -0.000000 0.000003 -0.004983 -0.061304 -19.071100 -2.192510 6.469440 -0.000001 170.027000 2.948750 -170.817000 -39.081100 -0.002282 -0.040193 0.065049 -0.083593 36.458600 -40.985400 0.000008 0.000006 20.821000 11.617700 -74.915900 -11.754300 -0.000006 -0.000006 -0.234157 -0.699040 -46.810900
0.000000 0.000000 0.000000 0.000000 0.000000 -0.000000 110.789000 83.438100 165.748000 122.379000 -76.205600 28.524000 15.735700 0.000005 -0.000001 104.500000 84.039600 -105.753000 8.984550 -0.406207 -0.000000 3.813750 3.023750 -2.604750 16.377300 -0.000001 -0.000001 -1.118210 -10.001500 3.817340 6.456720 -0.000001 -0.000000 -3.300780 -15.165500 7.187510 12.994200 -0.242716 4.980390 -91.579100 4.072880 -68.786500 5.348090 -0.000007 -0.000001 -59.883200 30.100700 3.136990 24.328600 0.000019 0.000005 -1.271530 -0.287208 -77.309300 22.291600 -0.000001 0.000005 2.128000 5.567190 -9.544010 12.994500 -0.242716 -4.980390 88.135200 9.679360 -79.040400 -5.348130 -0.000001 -0.000004 -58.326500 40.371600 -16.082300 -24.328900 0.000322 -0.000009 -12.543400 -0.199918 -89.050300 -22.291500 -0.000108 -0.000004 23.001400 5.650730 -14.885900 -2.192480 -6.469440 -0.000000 -178.249000 -8.959510 -36.225100 39.081100 -0.000007 -0.000012 -0.293433 0.230789 51.815200 40.985400 -0.000006 -0.000013 -7.041960 6.038220 -67.659800 11.754300 -0.000000 0.000003 -0.000016 -0.000205 -16.585600 -2.192510 6.469440 -0.000001 170.251000 2.853010 -172.224000 -39.081100 -0.002282 -0.040193 0.120957 -0.112693 46.244100 -40.985400 0.000008 0.000006 19.781500 11.235300 -60.503200 -11.754300 -0.000006 -0.000006 -0.446616 -0.949447 -60.156200
0.000000 0.000000 0.000000 0.000000 0.000000 -0.000000 106.473000 84.109200 168.372000 122.548000 -76.059500 30.483400 15.735700 0.000005 -0.000001 100.612000 83.590700 -102.244000 8.984550 -0.406207 -0.000000 4.873080 2.397320 -3.363140 16.377300 -0.000001 -0.000001 -0.756839 -10.438200 3.605310 6.456720 -0.000001 -0.000000 -2.312870 -15.752600 7.503960 12.994200 -0.242716 4.980390 -92.037600 5.398940 -69.287000 5.348090 -0.000007 -0.000001 -59.078300 27.073100 -11.982800 24.328600 0.000019 0.000005 3.798320 0.571221 -81.442100 22.291600 -0.000001 0.000005 1.711870 5.578360 -10.124600 12.994500 -0.242716 -4.980390 88.158200 9.417410 -78.881700 -5.348130 -0.000001 -0.000004 -66.138700 36.516900 -1.607010 -24.328900 0.000322 -0.000009 -2.089190 -0.667655 -72.285100 -22.291500 -0.000108 -0.000004 33.073300 5.680960 -20.080600 -2.192480 -6.469440 -0.000000 -178.900000 -8.868450 -30.531000 39.081100 -0.000007 -0.000012 -0.300178 0.236179 51.805200 40.985400 -0.000006 -0.000013 -5.804450 6.247770 -71.672100 11.754300 -0.000000 0.000003 -0.000051 -0.000581 -16.600100 -2.192510 6.469440 -0.000001 170.073000 2.376850 -179.238000 -39.081100 -0.002282 -0.040193 0.172046 -0.100356 59.273600 -40.985400 0.000008 0.000006 12.488200 10.017300 -42.230500 -11.754300 -0.000006 -0.000006 -0.148420 -0.551610 -39.892100
